<svg version="1.1" id="Layer_1" xmlns="http://www.w3.org/2000/svg" xmlns:xlink="http://www.w3.org/1999/xlink" x="0px" y="0px"
	 width="100%" viewBox="0 0 300 300" enable-background="new 0 0 300 300" xml:space="preserve">
<path fill="#E9C312" opacity="1.000000" stroke="none" 
	d="
M284.000000,301.000000 
	C190.645767,301.000000 97.291542,301.000000 3.492067,300.605957 
	C10.377901,268.772858 26.712154,242.503799 51.519684,222.390182 
	C87.967110,192.839096 129.750320,182.347931 175.964935,192.838318 
	C209.533279,200.458084 236.662247,218.617828 257.828857,245.521301 
	C270.738129,261.929413 279.595917,280.469452 284.000000,301.000000 
z"/>
<path fill="#F6CF16" opacity="1.000000" stroke="none" 
	d="
M0.999999,98.000000 
	C1.000000,65.694809 1.000000,33.389610 1.000000,1.042209 
	C100.884819,1.042209 200.769669,1.042209 301.000000,1.042209 
	C301.000000,36.020138 301.000000,71.041412 300.629303,106.512192 
	C298.598145,106.254211 296.784454,105.779961 295.299744,104.804871 
	C263.731689,84.072609 229.385635,70.394768 192.237915,63.510315 
	C164.388321,58.349045 136.472488,57.395557 108.431961,61.205009 
	C74.803856,65.773567 42.999352,76.111259 12.995193,91.987167 
	C9.042834,94.078461 5.000605,95.999893 0.999999,98.000000 
z"/>
<path fill="#F2CB16" opacity="1.000000" stroke="none" 
	d="
M0.999999,98.468658 
	C5.000605,95.999893 9.042834,94.078461 12.995193,91.987167 
	C42.999352,76.111259 74.803856,65.773567 108.431961,61.205009 
	C136.472488,57.395557 164.388321,58.349045 192.237915,63.510315 
	C229.385635,70.394768 263.731689,84.072609 295.299744,104.804871 
	C296.784454,105.779961 298.598145,106.254211 300.629303,106.980850 
	C301.000000,132.020889 301.000000,157.041794 300.662109,182.463928 
	C295.802399,178.996399 291.423401,174.942398 286.716492,171.313675 
	C282.460907,168.032898 277.847198,165.216675 273.244141,161.890259 
	C270.389893,157.371048 267.682922,153.157166 264.838287,148.728973 
	C264.655457,148.886841 265.119965,148.411743 265.654022,148.035431 
	C276.863708,140.136963 275.933197,123.807678 263.454315,117.274513 
	C259.029785,114.958115 254.061386,113.306221 249.147202,112.374146 
	C237.444519,110.154495 219.846237,116.632782 216.293137,129.183899 
	C212.839615,128.407166 209.812363,127.691910 206.655457,126.574303 
	C206.525772,122.929634 206.525772,119.687325 206.525772,116.648582 
	C196.158783,116.648582 186.447327,116.580551 176.740036,116.751221 
	C175.742310,116.768761 174.769669,118.212593 173.361542,118.995071 
	C167.354172,118.428879 161.778732,117.518028 156.184952,117.386253 
	C149.785828,117.235512 143.370422,117.777191 136.624466,117.913361 
	C133.460419,116.509933 130.755478,114.657845 127.786980,114.006096 
	C113.272827,110.819420 101.572250,115.654518 91.990799,127.126022 
	C88.569908,127.383392 85.593750,127.671913 82.435974,127.613754 
	C80.321785,118.980865 74.914307,114.081635 66.952515,111.822517 
	C64.274155,111.062546 61.499199,110.424400 58.733238,110.229469 
	C46.480282,109.365921 35.517101,112.396194 26.967245,121.716934 
	C26.113976,122.647133 25.603376,125.133018 26.210199,125.958023 
	C29.914335,130.994003 33.987465,135.758560 38.025875,140.722168 
	C39.900562,139.448441 41.158585,138.277405 42.645515,137.642151 
	C47.291912,135.657089 51.954575,133.640732 56.777748,132.191818 
	C57.866413,131.864761 59.630783,133.786987 61.084110,134.673813 
	C60.182644,136.081329 59.603718,138.102783 58.317741,138.778397 
	C54.809185,140.621674 50.986160,141.858826 47.316402,143.404221 
	C35.374626,148.433060 26.736721,156.193741 25.140018,170.031616 
	C21.422615,172.323898 17.915901,174.422989 14.688363,176.887634 
	C10.019550,180.452911 5.552890,184.282913 0.999997,188.000000 
	C1.000000,158.312439 1.000000,128.624878 0.999999,98.468658 
z"/>
<path fill="#EDC713" opacity="1.000000" stroke="none" 
	d="
M0.999997,188.468658 
	C5.552890,184.282913 10.019550,180.452911 14.688363,176.887634 
	C17.915901,174.422989 21.422615,172.323898 25.208969,170.493042 
	C25.613361,175.171616 25.613361,179.418625 25.613361,184.004181 
	C35.156731,184.004181 43.787239,184.004166 52.417747,184.004166 
	C61.172802,184.004166 69.927856,184.004181 78.575783,184.004181 
	C78.575783,177.583862 78.575783,171.875244 78.575783,165.724686 
	C68.291962,165.724686 58.432411,165.724686 48.572857,165.724686 
	C48.411160,165.257828 48.249462,164.790970 48.087765,164.324112 
	C52.086800,162.230789 55.976467,159.884567 60.108078,158.097809 
	C68.223213,154.588333 76.071983,150.831619 81.438202,143.001938 
	C83.189041,143.002518 84.535789,143.004303 85.911057,143.428635 
	C85.746117,147.163025 85.321930,150.480316 85.400024,153.785751 
	C85.702660,166.595139 89.898880,177.430756 101.923996,183.698456 
	C116.124336,191.099930 137.779236,191.203796 148.262268,168.947235 
	C148.695450,168.848251 148.868973,168.809860 149.500015,168.865601 
	C161.681213,168.959732 173.404922,168.959732 185.759033,168.959732 
	C185.759033,174.667465 185.759033,179.701569 185.759033,185.149048 
	C192.788177,184.790894 199.156021,184.466446 206.092163,184.113037 
	C206.092163,178.944763 206.092163,174.208038 206.092163,169.471329 
	C206.499802,169.751083 206.907455,170.030853 207.315094,170.310608 
	C209.224808,168.873871 211.134521,167.437134 213.420227,166.000214 
	C214.548294,165.999908 215.300339,165.999771 216.183823,166.358002 
	C217.151810,174.786209 221.978317,179.743576 228.895660,183.264709 
	C236.105164,186.934570 243.724808,187.409012 251.844986,186.985260 
	C253.082047,188.126450 253.954254,189.146545 254.992599,189.952682 
	C272.051361,203.196396 286.252655,219.002289 297.727234,237.293915 
	C298.441345,238.432327 299.891998,239.108673 301.000000,240.000000 
	C301.000000,260.217651 301.000000,280.435303 301.000000,301.000000 
	C295.651978,301.000000 290.296448,301.000000 284.470459,301.000000 
	C279.595917,280.469452 270.738129,261.929413 257.828857,245.521301 
	C236.662247,218.617828 209.533279,200.458084 175.964935,192.838318 
	C129.750320,182.347931 87.967110,192.839096 51.519684,222.390182 
	C26.712154,242.503799 10.377901,268.772858 3.023409,300.605957 
	C0.532050,301.623383 1.006817,299.847992 1.005568,298.517181 
	C0.995593,287.891266 1.000000,277.265320 1.000000,266.639404 
	C1.000000,240.738708 1.000000,214.838013 0.999997,188.468658 
z"/>
<path fill="#EFC815" opacity="1.000000" stroke="none" 
	d="
M301.000000,239.531342 
	C299.891998,239.108673 298.441345,238.432327 297.727234,237.293915 
	C286.252655,219.002289 272.051361,203.196396 254.992599,189.952682 
	C253.954254,189.146545 253.082047,188.126450 252.153839,186.757843 
	C253.919281,185.808456 255.701508,185.411194 257.401428,184.789062 
	C269.148987,180.489731 274.223816,173.288132 273.391388,162.195618 
	C277.847198,165.216675 282.460907,168.032898 286.716492,171.313675 
	C291.423401,174.942398 295.802399,178.996399 300.662109,182.932587 
	C301.000000,201.687561 301.000000,220.375122 301.000000,239.531342 
z"/>
<path fill="#FFFFFE" opacity="1.000000" stroke="none" 
	d="
M213.044220,166.000381 
	C211.134521,167.437134 209.224808,168.873871 207.315094,170.310608 
	C206.907455,170.030853 206.499802,169.751083 206.092163,169.471329 
	C206.092163,174.208038 206.092163,178.944763 206.092163,184.113037 
	C199.156021,184.466446 192.788177,184.790894 185.759033,185.149048 
	C185.759033,179.701569 185.759033,174.667465 185.759033,168.959732 
	C173.404922,168.959732 161.681213,168.959732 149.569427,168.674652 
	C149.104950,168.123245 149.028549,167.856903 148.952148,167.590576 
	C148.635651,168.062988 148.319138,168.535400 148.002640,169.007812 
	C137.779236,191.203796 116.124336,191.099930 101.923996,183.698456 
	C89.898880,177.430756 85.702660,166.595139 85.400024,153.785751 
	C85.321930,150.480316 85.746117,147.163025 86.055893,143.083282 
	C88.259995,137.262650 90.347755,132.209915 92.435524,127.157181 
	C101.572250,115.654518 113.272827,110.819420 127.786980,114.006096 
	C130.755478,114.657845 133.460419,116.509933 136.796951,118.198807 
	C145.455154,125.632912 150.243912,134.580139 151.219254,145.220383 
	C151.762451,151.146210 151.093277,157.183151 150.819290,163.338440 
	C150.542511,163.885986 150.416946,164.265106 150.291382,164.644226 
	C150.849655,164.064850 151.407944,163.485474 152.062500,162.573257 
	C159.367645,147.825150 166.576523,133.409882 173.785385,118.994598 
	C174.769669,118.212593 175.742310,116.768761 176.740036,116.751221 
	C186.447327,116.580551 196.158783,116.648582 206.525772,116.648582 
	C206.525772,119.687325 206.525772,122.929634 206.526901,127.028442 
	C206.528030,136.149231 206.528030,144.413513 206.528030,152.671402 
	C208.774734,152.941360 210.539978,153.153473 213.044220,153.454376 
	C213.044220,157.757812 213.044220,161.879105 213.044220,166.000381 
M130.701523,159.850906 
	C133.203140,152.603897 132.753571,145.692657 127.902000,139.532135 
	C122.970505,133.270111 114.765999,133.380112 109.960136,139.730560 
	C105.872093,145.132492 104.913620,151.226242 106.786842,157.715103 
	C108.399414,163.301117 111.279419,167.986160 117.535736,168.873581 
	C123.973961,169.786804 127.721504,165.872574 130.701523,159.850906 
M184.985367,138.132797 
	C182.246277,142.874374 179.507187,147.615967 176.575241,152.691391 
	C180.143616,152.691391 182.710083,152.691391 185.541016,152.691391 
	C185.541016,147.706070 185.541016,143.083282 184.985367,138.132797 
z"/>
<path fill="#FFFEFD" opacity="1.000000" stroke="none" 
	d="
M273.244141,161.890259 
	C274.223816,173.288132 269.148987,180.489731 257.401428,184.789062 
	C255.701508,185.411194 253.919281,185.808456 251.866302,186.537201 
	C243.724808,187.409012 236.105164,186.934570 228.895660,183.264709 
	C221.978317,179.743576 217.151810,174.786209 216.302612,165.988586 
	C216.745850,158.384537 220.356903,153.349640 226.236099,149.508057 
	C218.623779,144.389389 215.299133,137.871246 216.719421,129.245407 
	C219.846237,116.632782 237.444519,110.154495 249.147202,112.374146 
	C254.061386,113.306221 259.029785,114.958115 263.454315,117.274513 
	C275.933197,123.807678 276.863708,140.136963 265.654022,148.035431 
	C265.119965,148.411743 264.655457,148.886841 264.838287,148.728973 
	C267.682922,153.157166 270.389893,157.371048 273.244141,161.890259 
M236.399384,136.937683 
	C240.449127,141.345261 246.497116,142.572296 251.035294,139.285217 
	C252.446030,138.263382 252.659927,135.589188 253.421738,133.671448 
	C250.010330,132.459595 246.640427,130.446121 243.175583,130.266815 
	C239.869995,130.095749 236.113617,131.435562 236.399384,136.937683 
M253.303436,160.244171 
	C250.291794,159.159286 247.330322,157.399399 244.255051,157.170868 
	C240.877716,156.919922 236.306259,157.659943 236.343628,162.074722 
	C236.381012,166.491089 240.882629,166.753479 244.354660,166.969574 
	C250.407684,167.346329 253.107788,165.467850 253.303436,160.244171 
z"/>
<path fill="#FFFFFD" opacity="1.000000" stroke="none" 
	d="
M81.034119,143.003159 
	C76.071983,150.831619 68.223213,154.588333 60.108078,158.097809 
	C55.976467,159.884567 52.086800,162.230789 48.087765,164.324112 
	C48.249462,164.790970 48.411160,165.257828 48.572857,165.724686 
	C58.432411,165.724686 68.291962,165.724686 78.575783,165.724686 
	C78.575783,171.875244 78.575783,177.583862 78.575783,184.004181 
	C69.927856,184.004181 61.172802,184.004166 52.417747,184.004166 
	C43.787239,184.004166 35.156731,184.004181 25.613361,184.004181 
	C25.613361,179.418625 25.613361,175.171616 25.544411,170.463196 
	C26.736721,156.193741 35.374626,148.433060 47.316402,143.404221 
	C50.986160,141.858826 54.809185,140.621674 58.317741,138.778397 
	C59.603718,138.102783 60.182644,136.081329 61.084110,134.673813 
	C59.630783,133.786987 57.866413,131.864761 56.777748,132.191818 
	C51.954575,133.640732 47.291912,135.657089 42.645515,137.642151 
	C41.158585,138.277405 39.900562,139.448441 38.025875,140.722168 
	C33.987465,135.758560 29.914335,130.994003 26.210199,125.958023 
	C25.603376,125.133018 26.113976,122.647133 26.967245,121.716934 
	C35.517101,112.396194 46.480282,109.365921 58.733238,110.229469 
	C61.499199,110.424400 64.274155,111.062546 66.952515,111.822517 
	C74.914307,114.081635 80.321785,118.980865 82.399628,128.007385 
	C82.041298,133.499527 81.537712,138.251343 81.034119,143.003159 
z"/>
<path fill="#F0CA19" opacity="1.000000" stroke="none" 
	d="
M173.361542,118.995071 
	C166.576523,133.409882 159.367645,147.825150 151.811264,162.630585 
	C151.299347,163.070496 151.134918,163.120270 150.970490,163.170029 
	C151.093277,157.183151 151.762451,151.146210 151.219254,145.220383 
	C150.243912,134.580139 145.455154,125.632912 137.134567,118.303459 
	C143.370422,117.777191 149.785828,117.235512 156.184952,117.386253 
	C161.778732,117.518028 167.354172,118.428879 173.361542,118.995071 
z"/>
<path fill="#EFC815" opacity="1.000000" stroke="none" 
	d="
M216.293137,129.183899 
	C215.299133,137.871246 218.623779,144.389389 226.236099,149.508057 
	C220.356903,153.349640 216.745850,158.384537 216.171173,165.630188 
	C215.300339,165.999771 214.548294,165.999908 213.420227,166.000214 
	C213.044220,161.879105 213.044220,157.757812 213.044220,153.454376 
	C210.539978,153.153473 208.774734,152.941360 206.528030,152.671402 
	C206.528030,144.413513 206.528030,136.149231 206.656586,127.430801 
	C209.812363,127.691910 212.839615,128.407166 216.293137,129.183899 
z"/>
<path fill="#F0CB1F" opacity="1.000000" stroke="none" 
	d="
M81.438202,143.001938 
	C81.537712,138.251343 82.041298,133.499527 82.581238,128.354080 
	C85.593750,127.671913 88.569908,127.383392 91.990799,127.126022 
	C90.347755,132.209915 88.259995,137.262650 86.027382,142.660736 
	C84.535789,143.004303 83.189041,143.002518 81.438202,143.001938 
z"/>
<path fill="#FFFEFD" opacity="1.000000" stroke="none" 
	d="
M148.262268,168.947235 
	C148.319138,168.535400 148.635651,168.062988 148.952148,167.590576 
	C149.028549,167.856903 149.104950,168.123245 149.111938,168.580505 
	C148.868973,168.809860 148.695450,168.848251 148.262268,168.947235 
z"/>
<path fill="#EEC917" opacity="1.000000" stroke="none" 
	d="
M130.517426,160.197968 
	C127.721504,165.872574 123.973961,169.786804 117.535736,168.873581 
	C111.279419,167.986160 108.399414,163.301117 106.786842,157.715103 
	C104.913620,151.226242 105.872093,145.132492 109.960136,139.730560 
	C114.765999,133.380112 122.970505,133.270111 127.902000,139.532135 
	C132.753571,145.692657 133.203140,152.603897 130.517426,160.197968 
z"/>
<path fill="#F1CF30" opacity="1.000000" stroke="none" 
	d="
M185.263184,138.296661 
	C185.541016,143.083282 185.541016,147.706070 185.541016,152.691391 
	C182.710083,152.691391 180.143616,152.691391 176.575241,152.691391 
	C179.507187,147.615967 182.246277,142.874374 185.263184,138.296661 
z"/>
<path fill="#FFFEFD" opacity="1.000000" stroke="none" 
	d="
M150.819290,163.338440 
	C151.134918,163.120270 151.299347,163.070496 151.714996,162.963409 
	C151.407944,163.485474 150.849655,164.064850 150.291382,164.644226 
	C150.416946,164.265106 150.542511,163.885986 150.819290,163.338440 
z"/>
<path fill="#F2CC1D" opacity="1.000000" stroke="none" 
	d="
M236.278564,136.574677 
	C236.113617,131.435562 239.869995,130.095749 243.175583,130.266815 
	C246.640427,130.446121 250.010330,132.459595 253.421738,133.671448 
	C252.659927,135.589188 252.446030,138.263382 251.035294,139.285217 
	C246.497116,142.572296 240.449127,141.345261 236.278564,136.574677 
z"/>
<path fill="#F0CB1F" opacity="1.000000" stroke="none" 
	d="
M253.496094,160.571442 
	C253.107788,165.467850 250.407684,167.346329 244.354660,166.969574 
	C240.882629,166.753479 236.381012,166.491089 236.343628,162.074722 
	C236.306259,157.659943 240.877716,156.919922 244.255051,157.170868 
	C247.330322,157.399399 250.291794,159.159286 253.496094,160.571442 
z"/>
</svg>